<svg id="Layer_1" data-name="Layer 1" xmlns="http://www.w3.org/2000/svg" viewBox="0 0 89.59 137.58"><defs><style>.cls-1{fill:#abafb3;}.cls-2{fill:#686d73;}.cls-3{fill:#c2c6ca;}.cls-4{fill:#363a3d;}.cls-5{fill:#0797c4;}.cls-6{fill:#dcdee0;}.cls-7{fill:#3c3c3b;}.cls-8{fill:#f5f6f6;}.cls-9{fill:#717070;}.cls-10{fill:#e33868;}</style></defs><title>Artboard 1</title><rect class="cls-1" x="41.44" y="49.64" width="9" height="73.95"/><path class="cls-2" d="M50.94,124.08h-10V49.14h10Zm-9-1h8V50.14h-8Z"/><path class="cls-2" d="M45.32,20.08a.5.5,0,0,1-.5-.5v-6a.49.49,0,0,1,.21-.4l1.79-1.28L42.62,10a.49.49,0,0,1,0-.89l2.74-1.53V3.75a.5.5,0,0,1,1,0V7.92a.48.48,0,0,1-.26.43L43.94,9.53,48,11.34a.51.51,0,0,1,.3.41.5.5,0,0,1-.21.46l-2.29,1.63v5.74A.5.5,0,0,1,45.32,20.08Z"/><path class="cls-3" d="M66.35,36.54a20.41,20.41,0,0,0-40.81,0V51.21H66.35Z"/><path class="cls-2" d="M66.35,51.71H25.54a.51.51,0,0,1-.5-.5V36.54a20.91,20.91,0,0,1,41.81,0V51.21A.51.51,0,0,1,66.35,51.71ZM26,50.71H65.85V36.54a19.91,19.91,0,0,0-39.81,0Z"/><circle class="cls-4" cx="40.94" cy="43.08" r="2.5"/><circle class="cls-4" cx="50.94" cy="43.08" r="2.5"/><circle class="cls-5" cx="46.07" cy="3" r="3"/><path class="cls-1" d="M78.82,90.16c1.27-14.4-2.29-17.26-5.16-19.56l-.23-.18A42.11,42.11,0,0,1,68.25,65s0,0,0,0l.32-5.82a19.33,19.33,0,0,1,10.15,4.16c6.51,5.26,9.25,14.42,8.12,27.24Z"/><path class="cls-2" d="M69,59.71a18.83,18.83,0,0,1,9.36,4c6.3,5.08,9,13.94,8,26.33l-7-.35c1.08-13.12-1.8-16.6-5.39-19.48L73.75,70a40.1,40.1,0,0,1-5-5.22l.28-5.1m-.94-1.08-.36,6.52a51.07,51.07,0,0,0,5.42,5.66c2.84,2.29,6.57,4.85,5.15,19.83l9,.44C88.51,77.84,85.73,68.37,79,62.93a19.6,19.6,0,0,0-10.93-4.3Z"/><path class="cls-1" d="M27.19,73.55c-3.56-1.2-25.77-10-24-42.75l8,.48c-1.4,26.57,15,33.48,18.12,34.54Z"/><path class="cls-2" d="M3.65,31.33l7,.42c-1.15,25.43,14,32.87,18,34.39L26.85,72.9c-4.64-1.73-24.62-11-23.2-41.57M2.7,30.27C.51,66.57,27.27,74.11,27.54,74.18l2.34-8.69c-.81-.23-19.93-5.95-18.19-34.68l-9-.54Z"/><path class="cls-3" d="M5.36,23.57.73,23C.19,27,.1,34,6.56,34.83c7.3,1,8.22-5.9,8.75-9.93l-4.63-.62c-.27,2,.41,6.47-3.5,5.91S5.1,25.58,5.36,23.57Z"/><path class="cls-2" d="M7.92,35.42a10.19,10.19,0,0,1-1.42-.1,6.75,6.75,0,0,1-6-5.1,17.67,17.67,0,0,1-.31-7.34.53.53,0,0,1,.19-.33.55.55,0,0,1,.37-.1l4.64.62a.51.51,0,0,1,.43.57c-.05.35-.14.77-.24,1.22-.29,1.36-.65,3,0,4a2.25,2.25,0,0,0,1.62.83,2.21,2.21,0,0,0,1.84-.35c.88-.73.95-2.43,1-3.8,0-.5,0-.95.09-1.33a.53.53,0,0,1,.19-.33.55.55,0,0,1,.37-.1l4.64.62a.5.5,0,0,1,.33.2.49.49,0,0,1,.1.37C15.31,28.69,14.41,35.42,7.92,35.42ZM1.16,23.51a16,16,0,0,0,.34,6.42,5.74,5.74,0,0,0,5.13,4.4c6.07.81,7.4-3.92,8.12-9l-3.62-.49c0,.23,0,.48,0,.74C11,27.15,11,29.1,9.73,30.11a3.19,3.19,0,0,1-2.62.57,3.22,3.22,0,0,1-2.3-1.25c-.91-1.31-.5-3.23-.16-4.78,0-.23.09-.45.14-.65Z"/><path class="cls-3" d="M84.14,100.44l4.62.76c.66-4,1-11-5.48-12-7.26-1.19-8.38,5.65-9,9.66l4.62.76c.32-2-.22-6.48,3.66-5.81S84.47,98.44,84.14,100.44Z"/><path class="cls-2" d="M88.76,101.7h-.08l-4.62-.75a.49.49,0,0,1-.32-.2.52.52,0,0,1-.09-.38c.06-.35.16-.77.27-1.22.33-1.34.75-3,.11-4a2.21,2.21,0,0,0-1.59-.88,2.26,2.26,0,0,0-1.85.29c-.9.71-1,2.41-1.11,3.78,0,.49-.07.94-.13,1.32a.51.51,0,0,1-.58.41l-4.61-.76a.5.5,0,0,1-.33-.2.49.49,0,0,1-.09-.37c.66-4,1.87-11.35,9.62-10.08a6.75,6.75,0,0,1,5.8,5.28,17.46,17.46,0,0,1,.09,7.34A.49.49,0,0,1,88.76,101.7Zm-4-1.67,3.6.6a15.91,15.91,0,0,0-.14-6.43,5.75,5.75,0,0,0-5-4.55c-6-1-7.52,3.7-8.39,8.76l3.61.59c0-.23,0-.48.06-.73.11-1.57.25-3.52,1.49-4.49a3.79,3.79,0,0,1,4.9.82c.87,1.34.4,3.25,0,4.78C84.84,99.61,84.78,99.83,84.74,100Z"/><ellipse class="cls-6" cx="44.94" cy="133.58" rx="36" ry="4"/><rect class="cls-7" x="18.54" y="65.77" width="7.68" height="1" transform="translate(-47.45 62.25) rotate(-68.04)"/><rect class="cls-2" x="6.94" y="34.22" width="1" height="7.62" transform="translate(-30.88 43.77) rotate(-87.44)"/><rect class="cls-2" x="3.94" y="40.58" width="7.86" height="1"/><rect class="cls-2" x="3.85" y="43.24" width="7.5" height="1" transform="translate(-4.19 0.94) rotate(-5.55)"/><rect class="cls-2" x="4.55" y="46.14" width="7.5" height="1" transform="translate(-6.87 1.76) rotate(-8.59)"/><rect class="cls-2" x="5.55" y="49.14" width="7.5" height="1" transform="translate(-9.33 2.7) rotate(-11.04)"/><rect class="cls-2" x="6.55" y="52.14" width="7.5" height="1" transform="translate(-13.85 4.75) rotate(-15.69)"/><rect class="cls-2" x="7.86" y="54.52" width="7.9" height="1" transform="translate(-23.93 11.55) rotate(-27.32)"/><rect class="cls-2" x="8.73" y="57.17" width="8.15" height="1" transform="translate(-29.26 16.19) rotate(-32.88)"/><rect class="cls-2" x="14.82" y="63.77" width="7.52" height="1" transform="translate(-43.14 38.46) rotate(-51.18)"/><rect class="cls-2" x="12.2" y="61.53" width="8.5" height="1" transform="translate(-38.46 28.81) rotate(-43.97)"/><rect class="cls-2" x="11.08" y="58.86" width="8" height="1" transform="translate(-37.03 27.18) rotate(-44.05)"/><rect class="cls-3" x="21.44" y="115.58" width="49" height="19" rx="9.47" ry="9.47"/><path class="cls-2" d="M61,135.08h-30a10,10,0,0,1,0-20H61a10,10,0,0,1,0,20Zm-30-19a9,9,0,0,0,0,18H61a9,9,0,0,0,0-18Z"/><circle class="cls-8" cx="45.94" cy="125.08" r="5"/><path class="cls-2" d="M45.94,120.58a4.5,4.5,0,1,1-4.5,4.5,4.5,4.5,0,0,1,4.5-4.5m0-1a5.5,5.5,0,1,0,5.5,5.5,5.51,5.51,0,0,0-5.5-5.5Z"/><circle class="cls-8" cx="31.94" cy="125.08" r="5"/><path class="cls-2" d="M31.94,120.58a4.5,4.5,0,1,1-4.5,4.5,4.5,4.5,0,0,1,4.5-4.5m0-1a5.5,5.5,0,1,0,5.5,5.5,5.51,5.51,0,0,0-5.5-5.5Z"/><circle class="cls-8" cx="59.94" cy="125.08" r="5"/><path class="cls-2" d="M59.94,120.58a4.5,4.5,0,1,1-4.5,4.5,4.5,4.5,0,0,1,4.5-4.5m0-1a5.5,5.5,0,1,0,5.5,5.5,5.51,5.51,0,0,0-5.5-5.5Z"/><rect class="cls-3" x="19.44" y="54.58" width="53" height="53" rx="4" ry="4"/><path class="cls-2" d="M68.44,108.08h-45a4.51,4.51,0,0,1-4.5-4.5v-45a4.51,4.51,0,0,1,4.5-4.5h45a4.5,4.5,0,0,1,4.5,4.5v45A4.5,4.5,0,0,1,68.44,108.08Zm-45-53a3.5,3.5,0,0,0-3.5,3.5v45a3.5,3.5,0,0,0,3.5,3.5h45a3.5,3.5,0,0,0,3.5-3.5v-45a3.5,3.5,0,0,0-3.5-3.5Z"/><path class="cls-7" d="M54.44,93.92h-17a1,1,0,0,1,0-2h17a1,1,0,1,1,0,2Z"/><circle class="cls-9" cx="30.94" cy="92.92" r="2"/><path class="cls-7" d="M30.94,91.42a1.5,1.5,0,1,1-1.5,1.5,1.5,1.5,0,0,1,1.5-1.5m0-1a2.5,2.5,0,1,0,2.5,2.5,2.5,2.5,0,0,0-2.5-2.5Z"/><path class="cls-9" d="M60.94,94.92a2,2,0,0,1-1.54-3.27,2,2,0,0,1,1.35-.72H61a2,2,0,0,1,.19,4Z"/><path class="cls-7" d="M61,91.42a1.5,1.5,0,0,1,.14,3h-.15a1.51,1.51,0,0,1-1.49-1.36,1.51,1.51,0,0,1,1.35-1.64H61m0-1H60.7a2.5,2.5,0,0,0,.24,5l.25,0a2.5,2.5,0,0,0-.24-5Z"/><rect class="cls-8" x="25.94" y="64.58" width="40" height="20"/><path class="cls-2" d="M66.44,85.08h-41v-21h41Zm-40-1h39v-19h-39Z"/><g id="Page-1"><g id="heart"><g id="Shape"><path class="cls-10" d="M51.87,71.24a2.87,2.87,0,0,0-2.49-2.41,3.39,3.39,0,0,0-3.13,1.34,1.85,1.85,0,0,0-.31.63,1.69,1.69,0,0,0-.31-.63,3.37,3.37,0,0,0-3.13-1.34A2.84,2.84,0,0,0,40,71.24c-.31,1.66.4,2.7,1.44,4,1.41,1.74,3,3.39,4.48,5.05,1.52-1.66,3.07-3.3,4.5-5.05,1-1.27,1.75-2.31,1.43-4Z"/></g></g></g><path class="cls-2" d="M87.07,87.3a14.83,14.83,0,0,0-7.77-.73l-.21-1a15.59,15.59,0,0,1,8.35.77Z"/><path class="cls-2" d="M86.59,83.62a35.58,35.58,0,0,0-7.36-.27l-.07-1a35.54,35.54,0,0,1,7.64.28Z"/><path class="cls-2" d="M79.18,79.75a.41.41,0,0,0,.19-.26l-.47-.11-.41.32,0-.57c.17-.33.39-.78,7.9-.55l0,1C80.25,79.39,79.31,79.68,79.18,79.75Z"/><path class="cls-2" d="M78.52,77.39,78,76.53a16.35,16.35,0,0,1,7.94-1.88v1A15.49,15.49,0,0,0,78.52,77.39Z"/><path class="cls-2" d="M72.88,69.83h-1c0-6.82,3.41-9,3.55-9.11l.53.85-.27-.42.27.42S72.88,63.61,72.88,69.83Z"/><path class="cls-2" d="M73.59,70.32,72.65,70c2.31-6.2,6-6.91,6.14-6.94L79,64S75.68,64.71,73.59,70.32Z"/><path class="cls-2" d="M75.11,71.24l-1-.31c0-.05,1.72-5.18,7.12-5.18v1A6.61,6.61,0,0,0,75.11,71.24Z"/><path class="cls-2" d="M76.42,73.23l-.84-.55c3.34-5.05,7.55-4.37,7.73-4.34l-.17,1C83,69.3,79.38,68.76,76.42,73.23Z"/><path class="cls-2" d="M77.85,75.14,77,74.57A10,10,0,0,1,84.27,71l.1,1A9.24,9.24,0,0,0,77.85,75.14Z"/></svg>