<svg width="655" height="174" viewBox="0 0 655 174" fill="none" xmlns="http://www.w3.org/2000/svg">
<path fill-rule="evenodd" clip-rule="evenodd" d="M23.3491 16.4975C23.3491 27.9949 29.5426 38.0379 38.7582 43.4384C16.3245 47.8067 0 61.914 0 85.9591C0 115.409 24.4885 144.616 54.6967 144.616C84.9048 144.616 109.393 115.409 109.393 85.9591C109.393 62.6138 94.0053 48.6363 72.5782 43.8446C88.6753 36.7727 99.9244 20.6236 99.9244 1.83302C99.9244 1.34687 99.7323 0.880637 99.3904 0.536879C99.0485 0.193121 98.5847 0 98.1012 0C76.8892 7.5841e-05 59.0616 14.5677 53.9759 34.2947C49.4164 22.793 38.2386 14.6644 25.1724 14.6644C24.1654 14.6644 23.3491 15.4851 23.3491 16.4975ZM33.4354 59.2252C35.631 57.9872 38.4091 58.7731 39.6405 60.9806L57.2898 92.6204L72.3261 79.6629C74.2374 78.0159 77.1149 78.2384 78.7532 80.16C80.3915 82.0816 80.1701 84.9745 78.2588 86.6216L59.7659 102.558C58.7522 103.431 57.4667 103.779 56.2385 103.626C54.4523 103.853 52.6258 102.996 51.691 101.32L31.6894 65.4636C30.458 63.2562 31.2397 60.4632 33.4354 59.2252Z" fill="#6CA054"/>
<path fill-rule="evenodd" clip-rule="evenodd" d="M511.889 138.972C506.463 138.972 502.787 137.916 502.787 133.693C502.787 131.139 504.705 129.704 506.746 128.177C509.063 126.443 511.539 124.591 511.539 120.847V75.799C511.539 70.52 509.963 68.2323 507.338 66.2967C506.446 65.6339 505.64 65.092 504.925 64.6117C502.416 62.9244 501.037 61.9975 501.037 59.2579C501.037 53.6268 518.89 48.5237 526.766 48.5237C534.292 48.5237 536.743 52.0431 536.918 57.4982V120.847C536.918 124.591 539.393 126.443 541.711 128.177C543.751 129.704 545.669 131.139 545.669 133.693C545.669 137.916 541.994 138.972 536.568 138.972H511.889ZM142.153 101.843C142.153 119.792 143.903 141.612 172.433 141.612C194.837 141.612 200.963 126.302 200.963 116.096C200.963 108.353 197.812 104.834 192.386 104.834C185.91 104.834 183.635 109.409 183.635 116.096C183.635 125.599 181.359 130.174 175.583 130.174C168.051 130.174 168.053 122.935 168.057 112.573L168.057 111.873V62.7773H185.735C190.636 62.7773 192.736 61.0176 192.736 56.6183C192.736 52.2191 189.936 50.9873 186.085 50.9873H167.882V30.0469C167.882 23.36 167.182 20.7205 162.806 20.7205C157.341 20.7205 155.424 26.9182 153.325 33.7046C150.786 41.9152 147.98 50.9873 138.302 50.9873H136.727C132.876 50.9873 129.726 52.2191 129.726 57.1462C129.726 61.0176 132.351 62.7773 135.852 62.7773H142.153V101.843ZM214.589 99.9069C214.589 122.959 220.015 140.028 245.394 140.028C256.246 140.028 266.048 134.925 272.874 123.663H273.749V131.406C273.749 137.389 275.324 140.204 281.45 140.204C289.501 140.204 307.529 133.693 307.529 128.59C307.529 125.353 305.38 124.141 301.788 122.116L301.787 122.116L301.787 122.115L301.784 122.114C301.277 121.828 300.741 121.526 300.178 121.199C298.428 119.792 296.853 117.856 296.853 113.457L297.028 58.9059C296.853 51.6912 295.277 48.3477 288.101 48.3477C284.251 48.3477 273.224 50.6354 266.223 54.3307C263.597 55.7385 262.197 57.1462 262.197 58.9059C262.197 62.1593 264.232 63.2304 267.824 65.1211C268.312 65.378 268.829 65.65 269.373 65.9447C270.598 67.0006 271.823 68.4083 271.823 71.0479L271.648 98.1472C271.648 111.345 266.573 121.199 254.146 121.199C243.119 121.199 239.968 111.873 239.968 98.3232V58.9059C239.968 51.5152 238.218 48.3477 231.217 48.3477C227.716 48.3477 218.264 50.2834 209.338 54.1547C206.537 55.5625 205.137 57.1462 205.137 58.9059C205.137 62.1231 207.127 63.2063 210.529 65.0583L210.53 65.0586C211.036 65.3338 211.572 65.626 212.138 65.9447C213.539 67.0006 214.764 68.4083 214.589 71.0479V99.9069ZM326.433 138.972C321.007 138.972 317.331 137.916 317.331 133.693C317.331 131.139 319.249 129.704 321.29 128.177C323.607 126.443 326.083 124.591 326.083 120.847V75.2711C326.258 70.8719 324.682 68.7603 322.932 67.5285C322.248 67.1209 321.608 66.7539 321.013 66.4131L321.013 66.413C317.501 64.3992 315.581 63.2981 315.581 60.1377C315.581 55.0346 333.434 48.5237 341.485 48.5237C347.611 48.5237 349.186 51.1633 349.361 57.3222V65.4168H350.062C354.787 53.8028 363.889 48.3477 371.415 48.3477C380.692 48.3477 385.067 53.9788 385.067 61.7215C385.067 70.8719 379.642 75.4471 371.765 75.4471C369.511 75.4471 367.987 75.1018 366.449 74.7532C364.881 74.398 363.299 74.0393 360.913 74.0393C355.838 74.0393 351.462 76.8549 351.462 89.7007V120.847C351.462 124.591 353.937 126.443 356.255 128.177C358.295 129.704 360.213 131.139 360.213 133.693C360.213 137.916 356.538 138.972 351.112 138.972H326.433ZM392.71 133.693C392.71 137.916 396.386 138.972 401.812 138.972H426.491C431.917 138.972 435.592 137.916 435.592 133.693C435.592 131.139 433.674 129.704 431.634 128.177C429.316 126.443 426.841 124.591 426.841 120.847V90.4046C426.841 77.3828 432.442 67.1765 443.819 67.1765C454.145 67.1765 458.521 74.2153 458.521 87.941V120.847C458.521 124.591 456.046 126.443 453.728 128.177C451.688 129.704 449.77 131.139 449.77 133.693C449.77 137.916 453.445 138.972 459.046 138.972H483.55C488.976 138.972 492.652 137.916 492.652 133.693C492.652 131.139 490.733 129.704 488.693 128.177C486.375 126.443 483.9 124.591 483.9 120.847V83.8937C483.9 61.0176 474.099 48.3477 453.62 48.3477C440.318 48.3477 430.866 55.0346 425.616 64.8889H424.74V57.1462C424.74 51.1633 422.99 48.3477 417.039 48.3477C408.988 48.3477 390.96 54.8586 390.96 59.9618C390.96 63.0286 392.889 64.1563 396.146 66.0606C396.814 66.4508 397.537 66.8737 398.311 67.3525C400.061 68.5843 401.636 70.6959 401.461 75.0952V120.847C401.461 124.591 398.986 126.443 396.669 128.177C394.628 129.704 392.71 131.139 392.71 133.693ZM558.033 169.239C558.033 175.574 570.11 174.342 581.137 172.583C590.064 171.175 600.215 169.063 600.215 163.608C600.215 160.868 598.334 160.019 595.921 158.93C595.39 158.69 594.833 158.439 594.265 158.153C591.814 156.921 589.539 155.161 589.539 151.114V133.869C595.315 138.268 602.841 141.612 613.693 141.612C638.722 141.612 655 121.375 655 94.6278C655 64.537 637.847 48.3477 614.568 48.3477C603.891 48.3477 593.564 53.0989 587.613 60.1377H586.913V56.2664C586.913 50.8113 584.113 48.3477 580.262 48.3477C571.511 48.3477 553.658 54.1547 553.658 59.9618C553.658 62.6729 555.031 63.5717 557.237 65.0152C558.181 65.633 559.277 66.3505 560.484 67.3525C563.109 69.2882 564.335 71.9277 564.335 76.6789V152.874C564.335 158.857 563.809 161.32 561.884 163.432C561.356 164.044 560.866 164.571 560.425 165.046L560.424 165.047C558.962 166.618 558.033 167.617 558.033 169.239ZM628.92 104.834C628.57 121.199 622.094 129.646 611.592 129.646C599.34 129.646 589.539 114.161 589.539 97.4434V83.1898C589.539 69.992 597.24 62.6013 605.991 62.6013C620.169 62.7773 629.095 85.1255 628.92 104.834Z" fill="#306C1E"/>
<path d="M503.589 35.1932C501.568 27.6074 505.87 18.3852 513.652 16.2891C521.433 14.1929 529.745 20.0167 531.767 27.6025C533.789 35.1883 528.479 40.6333 520.698 42.7294C512.917 44.8256 505.611 42.779 503.589 35.1932Z" fill="#6CA054"/>
</svg>
