<svg xmlns="http://www.w3.org/2000/svg" viewBox="0 0 287.19 423.8"><defs><style>.cls-1{isolation:isolate;}.cls-2{fill:#c5e3e8;}.cls-3{fill:#fff;}.cls-4{fill:#ce4590;}.cls-5{fill:#ef61aa;}.cls-13,.cls-14,.cls-5,.cls-6,.cls-7{stroke:#144566;}.cls-12,.cls-14,.cls-5,.cls-6,.cls-7,.cls-8{stroke-miterlimit:10;}.cls-13,.cls-14,.cls-5{stroke-width:4px;}.cls-6{fill:#f7e2ee;}.cls-6,.cls-7,.cls-8{stroke-width:2px;}.cls-12,.cls-13,.cls-14,.cls-7,.cls-8{fill:none;}.cls-12,.cls-8{stroke:#fff;}.cls-12,.cls-13,.cls-8{stroke-linecap:round;}.cls-9{opacity:0.64;}.cls-10,.cls-9{mix-blend-mode:overlay;}.cls-10{opacity:0.37;}.cls-11{opacity:0.2;}.cls-12{stroke-width:24px;opacity:0.31;}.cls-13{stroke-linejoin:round;}</style></defs><title>flask</title><g class="cls-1"><g id="final_flask" data-name="final flask"><path class="cls-2" d="M95.59,410.35a3,3,0,0,1-1.47-.38,107.79,107.79,0,0,1,18.16-196.34V136.35h-10a3,3,0,0,1-3-3v-25a3,3,0,0,1,3-3h90a3,3,0,0,1,3,3v25a3,3,0,0,1-3,3h-9v77.28A107.79,107.79,0,0,1,201.44,410a3,3,0,0,1-1.47.38Z"/><path class="cls-3" d="M192.28,108.35v25h-12V215.8c42.63,13.61,73.48,53.26,73.48,100.07A104.92,104.92,0,0,1,200,407.35H95.59A104.92,104.92,0,0,1,41.8,315.87c0-46.81,30.85-86.46,73.48-100.07V133.35h-13v-25h90m0-6h-90a6,6,0,0,0-6,6v25a6,6,0,0,0,6,6h7v72.16A111.29,111.29,0,0,0,57.75,249.8a110.42,110.42,0,0,0-6.24,122.84,112.17,112.17,0,0,0,41.14,39.94,6,6,0,0,0,2.94.77H200a5.92,5.92,0,0,0,2.94-.77,112.17,112.17,0,0,0,41.14-39.94,111,111,0,0,0-57.77-161.13V139.35h6a6,6,0,0,0,6-6v-25a6,6,0,0,0-6-6Z"/><path class="cls-4" d="M99.25,396.35h97.13a93.16,93.16,0,0,0,44.69-79.59,92.63,92.63,0,0,0-9.68-41.4c-1.52-.06-3.06-.1-4.67-.1-61.69,0-61.69,43.68-123.38,43.68-20.47,0-35.22-6.52-47.95-14.63a95.13,95.13,0,0,0-.83,12.45,93.16,93.16,0,0,0,44.69,79.59Z"/><path class="cls-5" d="M73.4,260.58h0a93.27,93.27,0,0,0-5.75,103.77,93.81,93.81,0,0,0,31.63,32h97.13A93.37,93.37,0,0,0,238.51,295c-12.36,8.18-26.74,14.48-46.14,14.48C131.79,309.44,129.39,264.15,73.4,260.58Z"/><circle class="cls-6" cx="168.78" cy="239.35" r="8"/><line class="cls-7" x1="200.64" y1="351.15" x2="189.81" y2="366.58"/><line class="cls-7" x1="206.57" y1="349.67" x2="195.74" y2="365.11"/><circle class="cls-6" cx="152.78" cy="253.35" r="21"/><path class="cls-8" d="M136.44,248.61A16.61,16.61,0,0,1,145.9,238"/><path class="cls-8" d="M135.78,252.93c0-.4,0-.8.06-1.19"/><path class="cls-9" d="M144.39,267.15a29.71,29.71,0,0,1-9.09-1.42A21.11,21.11,0,0,0,172.51,247,29.7,29.7,0,0,1,144.39,267.15Z"/><circle class="cls-6" cx="148.28" cy="339.85" r="19.5"/><path class="cls-3" d="M133.67,336.21a1.07,1.07,0,0,1-.25,0,.92.92,0,0,1-.63-1.14,16.08,16.08,0,0,1,9.2-10.32.91.91,0,0,1,1.2.48.93.93,0,0,1-.48,1.21,14.23,14.23,0,0,0-8.16,9.14A.91.91,0,0,1,133.67,336.21Z"/><path class="cls-3" d="M133.07,340.35h0a.91.91,0,0,1-.9-.93c0-.39,0-.78.07-1.16a.91.91,0,1,1,1.82.17c0,.34,0,.68-.06,1A.9.9,0,0,1,133.07,340.35Z"/><path class="cls-9" d="M141,352.29a27.36,27.36,0,0,1-8.34-1.3,19.35,19.35,0,0,0,34.11-17.17A27.21,27.21,0,0,1,141,352.29Z"/><circle class="cls-6" cx="117.28" cy="309.85" r="10.5"/><path class="cls-3" d="M109.77,307.77a.36.36,0,0,1-.14,0,.5.5,0,0,1-.34-.62,8.85,8.85,0,0,1,5-5.66.52.52,0,0,1,.66.27.5.5,0,0,1-.27.66,7.81,7.81,0,0,0-4.46,5A.51.51,0,0,1,109.77,307.77Z"/><path class="cls-3" d="M109.44,310.35h0a.49.49,0,0,1-.49-.51q0-.31,0-.63a.51.51,0,0,1,.55-.46.5.5,0,0,1,.45.55l0,.56A.49.49,0,0,1,109.44,310.35Z"/><path class="cls-9" d="M113.77,316.59a15,15,0,0,1-4.57-.72,10.61,10.61,0,0,0,18.7-9.41A14.93,14.93,0,0,1,113.77,316.59Z"/><circle class="cls-6" cx="151.78" cy="194.35" r="12"/><path class="cls-3" d="M142.59,192.16l-.16,0a.58.58,0,0,1-.39-.72,10,10,0,0,1,5.75-6.44.56.56,0,0,1,.75.3.57.57,0,0,1-.3.75,8.89,8.89,0,0,0-5.1,5.72A.57.57,0,0,1,142.59,192.16Z"/><path class="cls-3" d="M142.21,194.35h0a.57.57,0,0,1-.56-.58c0-.24,0-.48,0-.72a.57.57,0,1,1,1.14.1c0,.21,0,.43,0,.64A.57.57,0,0,1,142.21,194.35Z"/><path class="cls-9" d="M147.15,202.2a17.21,17.21,0,0,1-5.21-.81,12.09,12.09,0,0,0,21.86-7.12,12.27,12.27,0,0,0-.55-3.61A17,17,0,0,1,147.15,202.2Z"/><circle class="cls-6" cx="138.78" cy="219.35" r="8"/><path class="cls-3" d="M133,217.85l-.11,0a.39.39,0,0,1-.26-.48,6.7,6.7,0,0,1,3.87-4.33.38.38,0,0,1,.5.2.4.4,0,0,1-.2.51,6,6,0,0,0-3.43,3.84A.38.38,0,0,1,133,217.85Z"/><path class="cls-3" d="M132.76,219.35h0a.38.38,0,0,1-.38-.39,3.87,3.87,0,0,1,0-.48.38.38,0,1,1,.76.07c0,.14,0,.28,0,.43A.38.38,0,0,1,132.76,219.35Z"/><path class="cls-9" d="M136.08,224.6a11.29,11.29,0,0,1-3.5-.55,8.13,8.13,0,0,0,14.7-4.78,8.45,8.45,0,0,0-.36-2.43A11.46,11.46,0,0,1,136.08,224.6Z"/><circle class="cls-6" cx="163.78" cy="72.35" r="20"/><path class="cls-3" d="M148.68,68.91a.78.78,0,0,1-.26,0,1,1,0,0,1-.65-1.18A16.64,16.64,0,0,1,157.32,57a1,1,0,0,1,.74,1.75,14.73,14.73,0,0,0-8.46,9.49A1,1,0,0,1,148.68,68.91Z"/><path class="cls-3" d="M148.05,73.35h0a1,1,0,0,1-.93-1c0-.4,0-.8.07-1.2a1,1,0,0,1,1-.86,1,1,0,0,1,.86,1c0,.35-.05.7-.05,1.06A1,1,0,0,1,148.05,73.35Z"/><path class="cls-9" d="M156.25,85.6a28.12,28.12,0,0,1-8.65-1.36A20.1,20.1,0,0,0,183,66.42,28.27,28.27,0,0,1,156.25,85.6Z"/><circle class="cls-6" cx="148.78" cy="53.35" r="12"/><path class="cls-3" d="M140,51l-.16,0a.58.58,0,0,1-.39-.72,10,10,0,0,1,5.75-6.44.56.56,0,0,1,.75.3.57.57,0,0,1-.3.75,8.89,8.89,0,0,0-5.1,5.72A.57.57,0,0,1,140,51Z"/><path class="cls-3" d="M139.57,53.35h0a.56.56,0,0,1-.56-.58c0-.24,0-.48,0-.72a.57.57,0,1,1,1.14.1c0,.21,0,.43,0,.64A.57.57,0,0,1,139.57,53.35Z"/><path class="cls-9" d="M144.51,61a17.21,17.21,0,0,1-5.21-.81,12.09,12.09,0,0,0,21.86-7.12,12.27,12.27,0,0,0-.55-3.61A17,17,0,0,1,144.51,61Z"/><circle class="cls-6" cx="145.28" cy="21.85" r="10.5"/><path class="cls-3" d="M137.73,20.07l-.14,0a.51.51,0,0,1-.34-.62,8.82,8.82,0,0,1,5-5.66A.5.5,0,0,1,143,14a.49.49,0,0,1-.26.65,7.81,7.81,0,0,0-4.47,5A.51.51,0,0,1,137.73,20.07Z"/><path class="cls-3" d="M137.4,22.35h0a.5.5,0,0,1-.49-.51c0-.21,0-.42,0-.63a.5.5,0,0,1,.54-.46.51.51,0,0,1,.46.55,5.25,5.25,0,0,0,0,.56A.5.5,0,0,1,137.4,22.35Z"/><path class="cls-9" d="M141.73,28.88a14.72,14.72,0,0,1-4.57-.72,10.61,10.61,0,0,0,18.7-9.4A14.93,14.93,0,0,1,141.73,28.88Z"/><path class="cls-10" d="M179.78,216.31v-83h13v-25h-46v300h52.44a105.71,105.71,0,0,0-19.44-192Z"/><rect class="cls-11" x="117.78" y="135.35" width="61" height="8"/><path class="cls-12" d="M134.93,171.6v49.76a14.43,14.43,0,0,1-10.05,13.76,86.93,86.93,0,0,0-56.32,55.37"/><g id="outlines"><line class="cls-13" x1="267.99" y1="408.04" x2="267.99" y2="408.04"/><line class="cls-13" x1="223.78" y1="408.35" x2="261.78" y2="408.35"/><line class="cls-13" x1="36.78" y1="408.35" x2="217.78" y2="408.35"/><line class="cls-13" x1="15.78" y1="408.35" x2="29.78" y2="408.35"/><line class="cls-13" x1="124.28" y1="133.35" x2="171.28" y2="133.35"/><path class="cls-13" d="M180.78,215.8V133.35h12v-25h-90v25h13V215.8C73.15,229.41,42.3,269.06,42.3,315.87a104.92,104.92,0,0,0,53.79,91.48H200.47a104.92,104.92,0,0,0,53.79-91.48C254.26,269.06,223.41,229.41,180.78,215.8Z"/><path class="cls-14" d="M73.4,260.58h0a93.27,93.27,0,0,0-5.75,103.77,93.81,93.81,0,0,0,31.63,32h97.13A93.37,93.37,0,0,0,238.51,295c-12.36,8.18-26.74,14.48-46.14,14.48C131.79,309.44,129.39,264.15,73.4,260.58Z"/><path class="cls-14" d="M240.43,305.82c.07.56.12,1.11.17,1.67C240.55,306.93,240.5,306.38,240.43,305.82Z"/><path class="cls-14" d="M239.65,300.48c.08.45.15.91.22,1.36C239.8,301.39,239.73,300.93,239.65,300.48Z"/><path class="cls-14" d="M240.08,303.14c.08.51.14,1,.21,1.54C240.22,304.16,240.16,303.65,240.08,303.14Z"/><path class="cls-14" d="M240.71,308.53c0,.59.09,1.19.13,1.78C240.8,309.72,240.76,309.12,240.71,308.53Z"/><path class="cls-14" d="M240.91,311.26c0,.64.06,1.28.08,1.92C241,312.54,240.94,311.9,240.91,311.26Z"/><path class="cls-14" d="M241,314c0,.92,0,1.84,0,2.76C241.07,315.84,241.05,314.92,241,314Z"/><path class="cls-14" d="M54.56,316.76q0-1.71.06-3.42Q54.56,315.05,54.56,316.76Z"/><path class="cls-14" d="M55,307.7c0-.21,0-.41.07-.62C55.05,307.29,55,307.49,55,307.7Z"/><path class="cls-14" d="M239.15,297.86c.08.37.14.73.22,1.1C239.29,298.59,239.23,298.23,239.15,297.86Z"/><path class="cls-14" d="M54.72,311.53c0-.47.05-.95.08-1.42C54.77,310.58,54.74,311.06,54.72,311.53Z"/><path class="cls-14" d="M192.37,309.44c19.39,0,33.77-6.3,46.14-14.48a92.7,92.7,0,0,0-7.12-19.6c-1.52-.06-3.06-.1-4.67-.1-36.16,0-51.13,15-69.74,27.43C166.42,306.78,177.68,309.44,192.37,309.44Z"/><path class="cls-14" d="M238.59,295.28c.06.26.11.51.17.76C238.7,295.79,238.65,295.54,238.59,295.28Z"/></g></g></g></svg>