<svg width="596" height="141" viewBox="0 0 596 141" fill="none" xmlns="http://www.w3.org/2000/svg">
<g clip-path="url(#clip0_183_5824)">
<path d="M216.955 117.342C192.093 117.342 173.871 98.2525 173.871 74.698V74.3901C173.871 50.8357 191.938 31.4379 217.263 31.4379C232.86 31.4379 242.588 36.6722 250.31 45.2935L235.948 60.6885C230.698 55.1463 225.448 51.6054 217.109 51.6054C205.373 51.6054 197.034 61.9201 197.034 74.0822V74.3901C197.034 87.0141 205.219 97.1748 218.036 97.1748C225.911 97.1748 231.316 93.7879 237.029 88.3996L250.773 102.255C242.743 111.03 233.478 117.342 216.955 117.342Z" fill="#D72828"/>
<path d="M140.09 115.495V32.9775H163.562V115.495H140.09Z" fill="#D72828"/>
<path d="M0 115.495L0 32.9774H23.472V44.6777C28.8768 37.7499 35.9801 31.4379 47.8705 31.4379C58.68 31.4379 66.8644 36.2104 71.1881 44.5237C78.4459 36.0564 87.0935 31.4379 98.3663 31.4379C115.816 31.4379 126.316 41.9065 126.316 61.7662L126.316 115.495H102.844L102.844 69.4637C102.844 58.3793 97.903 52.6831 89.101 52.6831C80.299 52.6831 74.8942 58.3793 74.8942 69.4637L74.8942 115.495L51.4222 115.495V69.4637C51.4222 58.3793 46.4808 52.6831 37.6788 52.6831C28.8768 52.6831 23.472 58.3793 23.472 69.4637L23.472 115.495H0Z" fill="#D72828"/>
<path fill-rule="evenodd" clip-rule="evenodd" d="M507.659 32.9778V140.127H531.131V104.719C536.69 111.339 544.411 117.035 556.919 117.035C576.531 117.035 594.598 101.948 594.598 74.3905V74.0826C594.598 46.5254 576.222 31.4382 556.919 31.4382C544.72 31.4382 536.845 37.1344 531.131 44.8319V32.9778L507.659 32.9778ZM571.126 74.3905C571.126 88.246 561.861 97.1752 550.897 97.1752C539.933 97.1752 530.822 88.0921 530.822 74.3905V74.0826C530.822 60.381 539.933 51.2979 550.897 51.2979C561.861 51.2979 571.126 60.381 571.126 74.0826V74.3905Z" fill="white"/>
<ellipse cx="454.99" cy="75.2555" rx="38.089" ry="37.9729" fill="white"/>
<path fill-rule="evenodd" clip-rule="evenodd" d="M454.298 117.371C477.246 117.371 495.849 98.8243 495.849 75.9459C495.849 53.0675 477.246 34.5209 454.298 34.5209C431.349 34.5209 412.746 53.0675 412.746 75.9459C412.746 98.8243 431.349 117.371 454.298 117.371ZM444.602 46.6032C444.602 44.3153 446.463 42.4606 448.758 42.4606H459.838C462.133 42.4606 463.993 44.3153 463.993 46.6032V75.927L472.69 67.2566C474.313 65.6388 476.944 65.6388 478.566 67.2566L486.322 74.9886C487.945 76.6064 487.945 79.2292 486.322 80.847L465.073 102.031L457.253 109.827C456.57 110.516 455.659 110.95 454.676 111.039C453.448 111.15 452.234 110.711 451.362 109.842L421.98 80.5504C420.358 78.9326 420.358 76.3097 421.98 74.692L429.815 66.8808C430.595 66.1039 431.652 65.6675 432.754 65.6675C433.856 65.6675 434.913 66.1039 435.692 66.8808L444.602 75.7643V46.6032Z" fill="#D72828"/>
<path fill-rule="evenodd" clip-rule="evenodd" d="M459.838 85.9279V46.6032L448.757 46.6032V85.7651L432.754 69.81L424.918 77.6212L454.3 106.913L454.308 106.905L483.384 77.9178L475.628 70.1858L459.838 85.9279ZM444.602 46.6032C444.602 44.3153 446.463 42.4606 448.757 42.4606H459.838C462.133 42.4606 463.993 44.3153 463.993 46.6032V75.927L472.69 67.2566C474.313 65.6388 476.944 65.6388 478.566 67.2566L486.322 74.9886C487.945 76.6064 487.945 79.2292 486.322 80.847L457.253 109.827C456.57 110.516 455.659 110.95 454.676 111.039C453.448 111.15 452.234 110.711 451.362 109.842L421.98 80.5504C420.358 78.9326 420.358 76.3097 421.98 74.692L429.815 66.8808C430.595 66.1039 431.652 65.6675 432.754 65.6675C433.856 65.6675 434.912 66.1039 435.692 66.8808L444.602 75.7643V46.6032ZM500.004 75.9459C500.004 101.112 479.541 121.513 454.298 121.513C429.054 121.513 408.591 101.112 408.591 75.9459C408.591 50.7796 429.054 30.3783 454.298 30.3783C479.541 30.3783 500.004 50.7796 500.004 75.9459ZM495.849 75.9459C495.849 98.8243 477.246 117.371 454.298 117.371C431.349 117.371 412.746 98.8243 412.746 75.9459C412.746 53.0675 431.349 34.5209 454.298 34.5209C477.246 34.5209 495.849 53.0675 495.849 75.9459Z" fill="#0B0D0E"/>
<path d="M358.275 115.495V32.9776H381.747V49.6043C386.534 38.2119 394.256 30.8223 408.153 31.4381V55.9162H406.918C391.322 55.9162 381.747 65.3072 381.747 85.0129V115.495H358.275Z" fill="white"/>
<path fill-rule="evenodd" clip-rule="evenodd" d="M258.086 74.3904C258.086 101.948 276.462 117.035 295.765 117.035C307.964 117.035 315.839 111.339 321.553 103.641V115.495L345.025 115.495V3.11126L321.553 3.11126V43.7542C315.994 37.1343 308.273 31.4382 295.765 31.4382C276.153 31.4382 258.086 46.5253 258.086 74.0825V74.3904ZM321.862 74.3904C321.862 88.092 312.751 97.175 301.787 97.175C290.823 97.175 281.558 88.092 281.558 74.3904V74.0825C281.558 60.2269 290.823 51.2978 301.787 51.2978C312.751 51.2978 321.862 60.3809 321.862 74.0825V74.3904Z" fill="white"/>
</g>
<defs>
<clipPath id="clip0_183_5824">
<rect width="595.574" height="140.845" fill="white"/>
</clipPath>
</defs>
</svg>
